<svg width="1920" height="1080" viewBox="0 0 1920 1080" fill="none" xmlns="http://www.w3.org/2000/svg">
<g clip-path="url(#clip0)">
<rect width="1920" height="1080" fill="white"/>
<path d="M905 539C523.4 758.6 183.5 214.5 -148.5 97.5L-70 1079.5L2205.5 1087.5C1901 941.5 1286.6 319.4 905 539Z" fill="#282B34" stroke="black"/>
<path d="M1712.56 243L1760.08 258.56L1744.52 306.077L1697 290.517L1712.56 243Z" fill="#282B34"/>
<path d="M813.231 267L852.277 298.231L821.047 337.277L782 306.047L813.231 267Z" fill="#282B34"/>
<path d="M354.231 280L393.277 311.231L362.047 350.277L323 319.047L354.231 280Z" fill="#282B34"/>
<path d="M941.217 420.296L895 401.217L914.079 355L960.296 374.079L941.217 420.296Z" fill="#282B34"/>
<path d="M1301.22 176.296L1255 157.217L1274.08 111L1320.3 130.079L1301.22 176.296Z" fill="#282B34"/>
<path d="M589.217 299.296L543 280.217L562.079 234L608.296 253.079L589.217 299.296Z" fill="#282B34"/>
<rect x="1510" y="190.133" width="47.1283" height="50" transform="rotate(-21.3174 1510 190.133)" fill="#4FB16B"/>
<rect x="499" y="51.6938" width="50" height="50" transform="rotate(-0.795022 499 51.6938)" fill="#4FB16B"/>
<rect x="88" y="148.694" width="50" height="50" transform="rotate(-0.795022 88 148.694)" fill="#4FB16B"/>
<rect x="750.444" y="501.811" width="50" height="50" transform="rotate(162.982 750.444 501.811)" fill="#4FB16B"/>
<path d="M1432 88C1432 101.807 1420.81 113 1407 113C1393.19 113 1382 101.807 1382 88C1382 74.1929 1393.19 63 1407 63C1420.81 63 1432 74.1929 1432 88Z" fill="#F57272" fill-opacity="0.88"/>
<path d="M1757.5 150.5C1757.5 164.307 1746.31 175.5 1732.5 175.5C1718.69 175.5 1707.5 164.307 1707.5 150.5C1707.5 136.693 1718.69 125.5 1732.5 125.5C1746.31 125.5 1757.5 136.693 1757.5 150.5Z" fill="#F57272" fill-opacity="0.88"/>
<path d="M1401.5 292.942C1396.66 305.873 1382.26 312.432 1369.32 307.591C1356.39 302.751 1349.83 288.344 1354.68 275.413C1359.52 262.483 1373.92 255.924 1386.85 260.764C1399.78 265.605 1406.34 280.011 1401.5 292.942Z" fill="#F57272" fill-opacity="0.88"/>
<path d="M1684.43 465.587C1679.59 478.518 1665.19 485.077 1652.26 480.236C1639.32 475.396 1632.77 460.989 1637.61 448.059C1642.45 435.128 1656.85 428.569 1669.78 433.41C1682.72 438.25 1689.27 452.656 1684.43 465.587Z" fill="#F57272" fill-opacity="0.88"/>
<path d="M956.458 154.658C957.493 140.889 969.494 130.567 983.262 131.602C997.03 132.638 1007.35 144.638 1006.32 158.406C1005.28 172.175 993.282 182.497 979.514 181.462C965.745 180.426 955.423 168.426 956.458 154.658Z" fill="#F57272" fill-opacity="0.88"/>
<path d="M636.56 67.9296C637.595 54.1614 649.596 43.8392 663.364 44.8743C677.132 45.9095 687.455 57.9101 686.419 71.6783C685.384 85.4466 673.384 95.7688 659.616 94.7336C645.847 93.6984 635.525 81.6979 636.56 67.9296Z" fill="#F57272" fill-opacity="0.88"/>
<path d="M1185.46 275.658C1186.49 261.889 1198.49 251.567 1212.26 252.602C1226.03 253.638 1236.35 265.638 1235.32 279.406C1234.28 293.175 1222.28 303.497 1208.51 302.462C1194.75 301.426 1184.42 289.426 1185.46 275.658Z" fill="#F57272" fill-opacity="0.88"/>
<path d="M865.56 188.93C866.595 175.161 878.596 164.839 892.364 165.874C906.132 166.91 916.455 178.91 915.419 192.678C914.384 206.447 902.384 216.769 888.615 215.734C874.847 214.698 864.525 202.698 865.56 188.93Z" fill="#F57272" fill-opacity="0.88"/>
<path d="M362.458 180.658C363.493 166.889 375.494 156.567 389.262 157.602C403.03 158.638 413.353 170.638 412.318 184.406C411.282 198.175 399.282 208.497 385.514 207.462C371.745 206.426 361.423 194.426 362.458 180.658Z" fill="#F57272" fill-opacity="0.88"/>
<path d="M42.5602 93.9296C43.5954 80.1614 55.5959 69.8392 69.3642 70.8743C83.1325 71.9095 93.4547 83.9101 92.4195 97.6783C91.3843 111.447 79.3838 121.769 65.6155 120.734C51.8472 119.698 41.525 107.698 42.5602 93.9296Z" fill="#F57272" fill-opacity="0.88"/>
<path d="M1806.5 69.6942L1849.64 73.3974L1824.86 108.908L1806.5 69.6942Z" fill="#32498E"/>
<path d="M1806.59 475.186L1845.69 493.779L1810.04 518.349L1806.59 475.186Z" fill="#32498E"/>
<path d="M1104.55 317.977L1061.8 311.05L1089.17 277.497L1104.55 317.977Z" fill="#32498E"/>
<path d="M1320.55 399.391L1277.8 392.464L1305.17 358.911L1320.55 399.391Z" fill="#32498E"/>
<path d="M773.547 163.977L730.803 157.05L758.174 123.497L773.547 163.977Z" fill="#32498E"/>
<path d="M1550.61 27.9703L1593.85 30.2253L1570.28 66.5469L1550.61 27.9703Z" fill="#448195" fill-opacity="0.67"/>
<path d="M1517.1 354.868L1556.81 372.139L1521.99 397.892L1517.1 354.868Z" fill="#448195" fill-opacity="0.67"/>
<path d="M1143.93 147.18L1100.97 141.689L1127.21 107.237L1143.93 147.18Z" fill="#448195" fill-opacity="0.67"/>
<path d="M1407.93 496.18L1364.97 490.689L1391.21 456.237L1407.93 496.18Z" fill="#448195" fill-opacity="0.67"/>
</g>
<defs>
<clipPath id="clip0">
<rect width="1920" height="1080" fill="white"/>
</clipPath>
</defs>
</svg>
